<mxfile host="app.diagrams.net" modified="2021-01-17T22:00:01.728Z" agent="5.0 (Windows NT 10.0; Win64; x64) AppleWebKit/537.36 (KHTML, like Gecko) Chrome/87.0.4280.141 Safari/537.36" etag="IOa6L44pdNpGC7hZ_4Mr" version="14.2.4" type="github">
  <diagram id="C5RBs43oDa-KdzZeNtuy" name="Page-1">
    <mxGraphModel dx="1609" dy="469" grid="1" gridSize="10" guides="1" tooltips="1" connect="1" arrows="1" fold="1" page="1" pageScale="1" pageWidth="827" pageHeight="1169" background="#ffffff" math="0" shadow="0">
      <root>
        <mxCell id="WIyWlLk6GJQsqaUBKTNV-0" />
        <mxCell id="WIyWlLk6GJQsqaUBKTNV-1" parent="WIyWlLk6GJQsqaUBKTNV-0" />
        <mxCell id="kNRHymAV8zpSRNtJUDri-2" value="&lt;b&gt;START&lt;/b&gt;" style="ellipse;whiteSpace=wrap;html=1;fillColor=#dae8fc;strokeColor=#6c8ebf;" vertex="1" parent="WIyWlLk6GJQsqaUBKTNV-1">
          <mxGeometry x="50" y="20" width="120" height="40" as="geometry" />
        </mxCell>
        <mxCell id="kNRHymAV8zpSRNtJUDri-3" value="&lt;b&gt;END&lt;/b&gt;" style="ellipse;whiteSpace=wrap;html=1;fillColor=#dae8fc;strokeColor=#6c8ebf;" vertex="1" parent="WIyWlLk6GJQsqaUBKTNV-1">
          <mxGeometry x="470" y="310" width="120" height="40" as="geometry" />
        </mxCell>
        <mxCell id="kNRHymAV8zpSRNtJUDri-4" value="" style="endArrow=classic;html=1;strokeWidth=2;" edge="1" parent="WIyWlLk6GJQsqaUBKTNV-1">
          <mxGeometry width="50" height="50" relative="1" as="geometry">
            <mxPoint x="109.5" y="60" as="sourcePoint" />
            <mxPoint x="109.5" y="100" as="targetPoint" />
          </mxGeometry>
        </mxCell>
        <mxCell id="kNRHymAV8zpSRNtJUDri-5" value="Coffee or Tea?" style="shape=parallelogram;perimeter=parallelogramPerimeter;whiteSpace=wrap;html=1;fixedSize=1;fillColor=#dae8fc;strokeColor=#6c8ebf;" vertex="1" parent="WIyWlLk6GJQsqaUBKTNV-1">
          <mxGeometry x="50" y="100" width="120" height="60" as="geometry" />
        </mxCell>
        <mxCell id="kNRHymAV8zpSRNtJUDri-9" value="" style="endArrow=classic;html=1;entryX=0.658;entryY=0;entryDx=0;entryDy=0;entryPerimeter=0;strokeWidth=2;" edge="1" parent="WIyWlLk6GJQsqaUBKTNV-1" target="kNRHymAV8zpSRNtJUDri-15">
          <mxGeometry relative="1" as="geometry">
            <mxPoint x="70" y="160" as="sourcePoint" />
            <mxPoint x="50" y="210" as="targetPoint" />
          </mxGeometry>
        </mxCell>
        <mxCell id="kNRHymAV8zpSRNtJUDri-10" value="Coffee" style="edgeLabel;resizable=0;html=1;align=center;verticalAlign=middle;fontStyle=4" connectable="0" vertex="1" parent="kNRHymAV8zpSRNtJUDri-9">
          <mxGeometry relative="1" as="geometry">
            <mxPoint x="0.030000000000001137" y="4.93" as="offset" />
          </mxGeometry>
        </mxCell>
        <mxCell id="kNRHymAV8zpSRNtJUDri-13" value="" style="endArrow=classic;html=1;entryX=0.431;entryY=0.067;entryDx=0;entryDy=0;entryPerimeter=0;strokeWidth=2;" edge="1" parent="WIyWlLk6GJQsqaUBKTNV-1" target="kNRHymAV8zpSRNtJUDri-16">
          <mxGeometry relative="1" as="geometry">
            <mxPoint x="140" y="160" as="sourcePoint" />
            <mxPoint x="140" y="210" as="targetPoint" />
          </mxGeometry>
        </mxCell>
        <mxCell id="kNRHymAV8zpSRNtJUDri-14" value="Tea" style="edgeLabel;resizable=0;html=1;align=center;verticalAlign=middle;fontStyle=4" connectable="0" vertex="1" parent="kNRHymAV8zpSRNtJUDri-13">
          <mxGeometry relative="1" as="geometry">
            <mxPoint x="0.030000000000001137" y="4.93" as="offset" />
          </mxGeometry>
        </mxCell>
        <mxCell id="kNRHymAV8zpSRNtJUDri-15" value="Serve Latte" style="ellipse;whiteSpace=wrap;html=1;fillColor=#dae8fc;strokeColor=#6c8ebf;" vertex="1" parent="WIyWlLk6GJQsqaUBKTNV-1">
          <mxGeometry x="-30" y="220" width="120" height="40" as="geometry" />
        </mxCell>
        <mxCell id="kNRHymAV8zpSRNtJUDri-16" value="Serve Green Tea" style="ellipse;whiteSpace=wrap;html=1;fillColor=#dae8fc;strokeColor=#6c8ebf;" vertex="1" parent="WIyWlLk6GJQsqaUBKTNV-1">
          <mxGeometry x="110" y="220" width="120" height="40" as="geometry" />
        </mxCell>
        <mxCell id="kNRHymAV8zpSRNtJUDri-19" value="" style="endArrow=classic;html=1;strokeWidth=2;" edge="1" parent="WIyWlLk6GJQsqaUBKTNV-1">
          <mxGeometry relative="1" as="geometry">
            <mxPoint x="159.14" y="130" as="sourcePoint" />
            <mxPoint x="340" y="190" as="targetPoint" />
          </mxGeometry>
        </mxCell>
        <mxCell id="kNRHymAV8zpSRNtJUDri-20" value="Neither" style="edgeLabel;resizable=0;html=1;align=center;verticalAlign=middle;fontStyle=4" connectable="0" vertex="1" parent="kNRHymAV8zpSRNtJUDri-19">
          <mxGeometry relative="1" as="geometry">
            <mxPoint x="0.030000000000001137" y="4.93" as="offset" />
          </mxGeometry>
        </mxCell>
        <mxCell id="kNRHymAV8zpSRNtJUDri-21" value="Something Else?" style="shape=parallelogram;perimeter=parallelogramPerimeter;whiteSpace=wrap;html=1;fixedSize=1;fillColor=#dae8fc;strokeColor=#6c8ebf;" vertex="1" parent="WIyWlLk6GJQsqaUBKTNV-1">
          <mxGeometry x="330" y="170" width="120" height="60" as="geometry" />
        </mxCell>
        <mxCell id="kNRHymAV8zpSRNtJUDri-23" value="" style="endArrow=classic;html=1;strokeWidth=2;" edge="1" parent="WIyWlLk6GJQsqaUBKTNV-1">
          <mxGeometry relative="1" as="geometry">
            <mxPoint x="350" y="230" as="sourcePoint" />
            <mxPoint x="340" y="293" as="targetPoint" />
          </mxGeometry>
        </mxCell>
        <mxCell id="kNRHymAV8zpSRNtJUDri-24" value="Yes" style="edgeLabel;resizable=0;html=1;align=center;verticalAlign=middle;fontStyle=4" connectable="0" vertex="1" parent="kNRHymAV8zpSRNtJUDri-23">
          <mxGeometry relative="1" as="geometry">
            <mxPoint x="0.030000000000001137" y="4.93" as="offset" />
          </mxGeometry>
        </mxCell>
        <mxCell id="kNRHymAV8zpSRNtJUDri-25" value="" style="endArrow=classic;html=1;strokeWidth=2;entryX=0.219;entryY=0.017;entryDx=0;entryDy=0;entryPerimeter=0;" edge="1" parent="WIyWlLk6GJQsqaUBKTNV-1" target="kNRHymAV8zpSRNtJUDri-3">
          <mxGeometry relative="1" as="geometry">
            <mxPoint x="414" y="230" as="sourcePoint" />
            <mxPoint x="500" y="288" as="targetPoint" />
          </mxGeometry>
        </mxCell>
        <mxCell id="kNRHymAV8zpSRNtJUDri-26" value="No" style="edgeLabel;resizable=0;html=1;align=center;verticalAlign=middle;fontStyle=4" connectable="0" vertex="1" parent="kNRHymAV8zpSRNtJUDri-25">
          <mxGeometry relative="1" as="geometry">
            <mxPoint x="0.030000000000001137" y="4.93" as="offset" />
          </mxGeometry>
        </mxCell>
        <mxCell id="kNRHymAV8zpSRNtJUDri-27" value="Juice or Milk?" style="shape=parallelogram;perimeter=parallelogramPerimeter;whiteSpace=wrap;html=1;fixedSize=1;fillColor=#dae8fc;strokeColor=#6c8ebf;" vertex="1" parent="WIyWlLk6GJQsqaUBKTNV-1">
          <mxGeometry x="270" y="290" width="120" height="60" as="geometry" />
        </mxCell>
        <mxCell id="kNRHymAV8zpSRNtJUDri-28" value="" style="endArrow=classic;html=1;strokeWidth=2;entryX=0.581;entryY=0.017;entryDx=0;entryDy=0;entryPerimeter=0;" edge="1" parent="WIyWlLk6GJQsqaUBKTNV-1" target="kNRHymAV8zpSRNtJUDri-33">
          <mxGeometry relative="1" as="geometry">
            <mxPoint x="290" y="350" as="sourcePoint" />
            <mxPoint x="280" y="413" as="targetPoint" />
          </mxGeometry>
        </mxCell>
        <mxCell id="kNRHymAV8zpSRNtJUDri-29" value="Yes" style="edgeLabel;resizable=0;html=1;align=center;verticalAlign=middle;fontStyle=4" connectable="0" vertex="1" parent="kNRHymAV8zpSRNtJUDri-28">
          <mxGeometry relative="1" as="geometry">
            <mxPoint x="0.030000000000001137" y="4.93" as="offset" />
          </mxGeometry>
        </mxCell>
        <mxCell id="kNRHymAV8zpSRNtJUDri-30" value="" style="endArrow=classic;html=1;strokeWidth=2;" edge="1" parent="WIyWlLk6GJQsqaUBKTNV-1" target="kNRHymAV8zpSRNtJUDri-34">
          <mxGeometry relative="1" as="geometry">
            <mxPoint x="347" y="350" as="sourcePoint" />
            <mxPoint x="390" y="418" as="targetPoint" />
          </mxGeometry>
        </mxCell>
        <mxCell id="kNRHymAV8zpSRNtJUDri-31" value="No" style="edgeLabel;resizable=0;html=1;align=center;verticalAlign=middle;fontStyle=4" connectable="0" vertex="1" parent="kNRHymAV8zpSRNtJUDri-30">
          <mxGeometry relative="1" as="geometry">
            <mxPoint x="0.030000000000001137" y="4.93" as="offset" />
          </mxGeometry>
        </mxCell>
        <mxCell id="kNRHymAV8zpSRNtJUDri-33" value="Serve Juice or Milk Choice" style="ellipse;whiteSpace=wrap;html=1;fillColor=#dae8fc;strokeColor=#6c8ebf;" vertex="1" parent="WIyWlLk6GJQsqaUBKTNV-1">
          <mxGeometry x="210" y="420" width="120" height="40" as="geometry" />
        </mxCell>
        <mxCell id="kNRHymAV8zpSRNtJUDri-34" value="Serve Water" style="ellipse;whiteSpace=wrap;html=1;fillColor=#dae8fc;strokeColor=#6c8ebf;" vertex="1" parent="WIyWlLk6GJQsqaUBKTNV-1">
          <mxGeometry x="340" y="420" width="120" height="40" as="geometry" />
        </mxCell>
      </root>
    </mxGraphModel>
  </diagram>
</mxfile>
